<?xml version="1.0" encoding="UTF-8" standalone="no"?>
<svg
   xmlns:dc="http://purl.org/dc/elements/1.1/"
   xmlns:cc="http://creativecommons.org/ns#"
   xmlns:rdf="http://www.w3.org/1999/02/22-rdf-syntax-ns#"
   xmlns:svg="http://www.w3.org/2000/svg"
   xmlns="http://www.w3.org/2000/svg"
   xmlns:sodipodi="http://sodipodi.sourceforge.net/DTD/sodipodi-0.dtd"
   xmlns:inkscape="http://www.inkscape.org/namespaces/inkscape"
   version="1.1"
   viewBox="0 0 171.80002 208.12962"
   id="svg28"
   sodipodi:docname="logo.svg"
   inkscape:version="0.92.3 (2405546, 2018-03-11)"
   width="45.455421mm"
   height="55.067627mm"
   inkscape:export-filename="/home/fred/Nextcloud/DocS/programmation/C++/libraries/arduino/1.7 - communicate LED - MPU92-65 - Godot v2.1/_._doxygen/logo.svg.png"
   inkscape:export-xdpi="96"
   inkscape:export-ydpi="96">
  <defs
     id="defs32" />
  <sodipodi:namedview
     pagecolor="#ffffff"
     bordercolor="#666666"
     borderopacity="1"
     objecttolerance="10"
     gridtolerance="10"
     guidetolerance="10"
     inkscape:pageopacity="0"
     inkscape:pageshadow="2"
     inkscape:window-width="1920"
     inkscape:window-height="1048"
     id="namedview30"
     showgrid="false"
     inkscape:snap-object-midpoints="true"
     inkscape:snap-bbox="true"
     inkscape:snap-bbox-edge-midpoints="true"
     inkscape:zoom="1.0094531"
     inkscape:cx="-175.41144"
     inkscape:cy="113.7822"
     inkscape:window-x="0"
     inkscape:window-y="0"
     inkscape:window-maximized="1"
     inkscape:current-layer="svg28"
     units="mm"
     fit-margin-top="0"
     fit-margin-left="0"
     fit-margin-right="0"
     fit-margin-bottom="0" />
  <metadata
     id="metadata2">
    <rdf:RDF>
      <cc:Work
         rdf:about="">
        <dc:format>image/svg+xml</dc:format>
        <dc:type
           rdf:resource="http://purl.org/dc/dcmitype/StillImage" />
        <dc:title></dc:title>
      </cc:Work>
    </rdf:RDF>
  </metadata>
  <g
     transform="translate(35.899876,-1026.6958)"
     id="g26">
    <g
       transform="matrix(0.41022,0,0,-0.41022,90.133,1088.2)"
       id="g6"
       style="stroke-width:0.32031">
      <path
         d="m 0,0 c 0,0 -0.325,1.994 -0.515,1.976 l -36.182,-3.491 c -2.879,-0.278 -5.115,-2.574 -5.317,-5.459 l -0.994,-14.247 -27.992,-1.997 -1.904,12.912 c -0.424,2.872 -2.932,5.037 -5.835,5.037 h -38.188 c -2.902,0 -5.41,-2.165 -5.834,-5.037 l -1.905,-12.912 -27.992,1.997 -0.994,14.247 c -0.202,2.886 -2.438,5.182 -5.317,5.46 l -36.2,3.49 c -0.187,0.018 -0.324,-1.978 -0.511,-1.978 l -0.049,-7.83 30.658,-4.944 1.004,-14.374 c 0.203,-2.91 2.551,-5.263 5.463,-5.472 l 38.551,-2.75 c 0.146,-0.01 0.29,-0.016 0.434,-0.016 2.897,0 5.401,2.166 5.825,5.038 l 1.959,13.286 h 28.005 l 1.959,-13.286 c 0.423,-2.871 2.93,-5.037 5.831,-5.037 0.142,0 0.284,0.005 0.423,0.015 l 38.556,2.75 c 2.911,0.209 5.26,2.562 5.463,5.472 l 1.003,14.374 30.645,4.966 z"
         id="path4"
         inkscape:connector-curvature="0"
         style="fill:#ffffff" />
    </g>
    <path
       d="m 40.764,1026.7 c -0.22378,-0.01 -0.44741,0.016 -0.66602,0.064 -4.3317,0.963 -8.6879,2.3175 -12.83,4.4024 -0.95895,0.4827 -1.5531,1.4756 -1.5254,2.5488 0.07479,2.8867 0.32664,5.695 0.64453,8.5293 -1.0776,0.645 -2.1541,1.232 -3.3418,2.1856 -0.84553,0.6493 -1.7885,1.4733 -2.7109,2.2363 -2.1487,-1.3494 -4.3197,-2.6924 -6.6191,-3.8496 -1.1025,-0.5551 -2.4393,-0.3147 -3.2793,0.5898 -3.1265,3.3648 -6.0985,7.0462 -8.5527,11.223 -0.52064,0.8868 -0.50786,1.9888 0.033203,2.8633 1.6231,2.6255 3.3518,5.0794 5.1719,7.4589 v 29.805 c 0,8.223 5.472,14.496 13.299,18.238 7.8268,3.7426 18.185,5.4523 29.576,5.4922 h 0.07425 c 11.391,-0.04 21.749,-1.7494 29.574,-5.4922 7.825,-3.7428 13.295,-10.016 13.295,-18.238 l 0.0039,-29.031 c 1.8487,-2.7118 3.3825,-5.3341 5.1738,-8.2305 0.54026,-0.874 0.55303,-1.975 0.0332,-2.8613 -2.4537,-4.1771 -5.4284,-7.8601 -8.5547,-11.225 -0.83968,-0.9036 -2.1753,-1.144 -3.2773,-0.5899 -2.2985,1.157 -4.4703,2.5023 -6.6191,3.8516 -0.92228,-0.7635 -1.8625,-1.5876 -2.7109,-2.2383 -0.0034,0 -0.0064,0 -0.0098,-0.01 -1.1855,-0.951 -2.2584,-1.537 -3.332,-2.1797 0.3171,-2.834 0.56942,-5.643 0.64453,-8.5293 0.02779,-1.0733 -0.56641,-2.0662 -1.5254,-2.5489 -4.1423,-2.0846 -8.4981,-3.4392 -12.832,-4.4023 -1.1688,-0.2595 -2.3721,0.2603 -2.9844,1.2891 -1.4005,2.3538 -2.6017,4.8552 -3.7637,7.3261 -1.0352,-0.094 -2.0858,-0.238 -3.0879,-0.25 -0.01107,-10e-5 -0.02213,-10e-5 -0.0332,0 h -0.06054 c -0.01107,-10e-5 -0.02213,-10e-5 -0.0332,0 -1.0041,0.012 -2.0561,0.1556 -3.0918,0.25 -1.1152,-2.3725 -2.2767,-4.7643 -3.6152,-7.0351 -0.04428,-0.1006 -0.0945,-0.1984 -0.15039,-0.293 -0.48802,-0.8195 -1.3629,-1.3307 -2.3164,-1.3535 z"
       dominant-baseline="auto"
       style="color:#000000;font-variant-ligatures:normal;font-variant-position:normal;font-variant-caps:normal;font-variant-numeric:normal;font-variant-alternates:normal;font-feature-settings:normal;text-indent:0;text-decoration:none;text-decoration-line:none;text-decoration-style:solid;text-decoration-color:#000000;text-transform:none;text-orientation:mixed;dominant-baseline:auto;white-space:normal;shape-padding:0;isolation:auto;mix-blend-mode:normal;solid-color:#000000;fill:#ffffff;color-rendering:auto;image-rendering:auto;shape-rendering:auto"
       id="path8"
       inkscape:connector-curvature="0" />
    <path
       d="m 40.699,1029.4 c -4.1777,0.9287 -8.3103,2.2217 -12.185,4.1719 0.08864,3.4213 0.3098,6.6993 0.75817,10.029 -1.5047,0.9641 -3.086,1.7915 -4.4915,2.9199 -1.428,1.0985 -2.8864,2.1496 -4.1795,3.4344 -2.5831,-1.7086 -5.3171,-3.3141 -8.1337,-4.7315 -3.036,3.2674 -5.8748,6.7939 -8.1937,10.74 1.7447,2.8222 3.566,5.4678 5.5326,7.9784 h 0.055057 v 24.22 c 0.044277,4e-4 0.088553,0 0.13242,0.01 l 14.848,1.4317 c 0.77777,0.075 1.3873,0.701 1.4415,1.4804 l 0.4579,6.5545 12.952,0.924 0.89232,-6.0493 c 0.11568,-0.7844 0.78842,-1.3657 1.5818,-1.3657 h 15.665 c 0.79295,0 1.4657,0.5813 1.5814,1.3657 l 0.89232,6.0493 12.953,-0.924 0.45752,-6.5545 c 0.05457,-0.7794 0.66369,-1.405 1.4415,-1.4804 l 14.842,-1.4317 c 0.0439,0 0.08778,-0.01 0.13204,-0.01 v -1.9326 h 0.0058 v -22.285 h 0.05506 c 1.967,-2.5105 3.7871,-5.1561 5.5326,-7.9784 -2.3181,-3.9462 -5.1585,-7.4728 -8.1945,-10.74 -2.8157,1.4174 -5.5507,3.023 -8.1339,4.7315 -1.2926,-1.2848 -2.7485,-2.3358 -4.1785,-3.4343 -1.405,-1.1286 -2.9883,-1.9559 -4.4901,-2.9199 0.44714,-3.3298 0.66819,-6.6079 0.75721,-10.029 -3.8749,-1.9501 -8.007,-3.2432 -12.187,-4.1719 -1.6688,2.8047 -3.1949,5.8418 -4.524,8.811 -1.5761,-0.2633 -3.1595,-0.3609 -4.745,-0.3798 h -0.0308 -0.03003 c -1.5884,0.019 -3.1704,0.1165 -4.7469,0.3798 -1.3283,-2.9692 -2.8535,-6.0063 -4.5248,-8.811 z m -30.862,61.966 c 0.00577,1.4349 0.024448,3.007 0.024448,3.32 0,14.101 17.888,20.878 40.112,20.956 h 0.05448 c 22.224,-0.078 40.106,-6.8554 40.106,-20.956 0,-0.3188 0.01926,-1.8844 0.02579,-3.32 l -13.346,1.2872 -0.46002,6.5895 c -0.05535,0.7941 -0.68712,1.4261 -1.4813,1.4831 l -15.816,1.1286 h -0.11529 c -0.78597,0 -1.4641,-0.5767 -1.5802,-1.366 l -0.90696,-6.151 h -12.905 l -0.90695,6.151 c -0.12183,0.8277 -0.86196,1.4229 -1.6955,1.3617 l -15.816,-1.1285 c -0.79418,-0.057 -1.4259,-0.6889 -1.4813,-1.4831 l -0.45983,-6.5896 z"
       id="path10"
       inkscape:connector-curvature="0"
       style="fill:#478cbf" />
    <g
       transform="matrix(0.41022,0,0,-0.41022,37.9,1073.8)"
       id="g14"
       style="stroke-width:0.32031">
      <path
         d="m 0,0 c 0,-12.052 -9.765,-21.815 -21.813,-21.815 -12.042,0 -21.81,9.763 -21.81,21.815 0,12.044 9.768,21.802 21.81,21.802 C -9.765,21.802 0,12.044 0,0"
         id="path12"
         inkscape:connector-curvature="0"
         style="fill:#ffffff" />
    </g>
    <g
       transform="matrix(0.41022,0,0,-0.41022,50,1083.6)"
       id="g18"
       style="stroke-width:0.32031">
      <path
         d="m 0,0 c -3.878,0 -7.021,2.858 -7.021,6.381 v 20.081 c 0,3.52 3.143,6.381 7.021,6.381 3.878,0 7.028,-2.861 7.028,-6.381 V 6.381 C 7.028,2.858 3.878,0 0,0"
         id="path16"
         inkscape:connector-curvature="0"
         style="fill:#ffffff" />
    </g>
    <g
       transform="matrix(0.41022,0,0,-0.41022,62.101,1073.8)"
       id="g22"
       style="stroke-width:0.32031">
      <path
         d="m 0,0 c 0,-12.052 9.765,-21.815 21.815,-21.815 12.041,0 21.808,9.763 21.808,21.815 0,12.044 -9.767,21.802 -21.808,21.802 C 9.765,21.802 0,12.044 0,0"
         id="path20"
         inkscape:connector-curvature="0"
         style="fill:#ffffff" />
    </g>
    <path
       d="m 29.807,1068.4 c -3.2801,0 -5.9395,2.6601 -5.9395,5.9394 0,3.2794 2.6594,5.9371 5.9395,5.9371 3.2818,0 5.9397,-2.6577 5.9397,-5.9371 0,-3.2793 -2.6579,-5.9394 -5.9397,-5.9394 z m 40.383,0 c -3.2793,0 -5.9362,2.6601 -5.9362,5.9394 0,3.2794 2.6569,5.9371 5.9362,5.9371 3.2826,0 5.9396,-2.6577 5.9396,-5.9371 0,-3.2793 -2.6571,-5.9394 -5.9396,-5.9394 z"
       id="path24"
       inkscape:connector-curvature="0"
       style="fill:#414042" />
  </g>
  <style
     id="style902"
     type="text/css">
.arduino {
  fill: none;
  stroke: #00979c;
  stroke-width: 1;
}

.text {
  fill: #00979c;
  stroke-width: 1;
}

</style>
  <g
     id="g935"
     transform="matrix(0.23799974,0,0,0.23799974,0.44753549,92.11645)">
    <path
       d="M 174,30 C 78.937,22.427 -0.94153,134.8 38.361,221.95 76.313,316.35 219.35,342.08 287.52,266.37 353.4,201.82 378.85,102.8 459.04,51.741 541.07,-4.2196 673.25,48.616 688.79,148.17 704.41,243.5 601.73,336.36 508.52,308.1 439.81,292.57 390.37,233.95 362.24,172.33 327.72,113.36 282.59,50.526 212.19,33.945 199.68,31.108 186.82,29.987 174,30 Z"
       style="fill:none;stroke:#00979c;stroke-width:59"
       class="arduino"
       id="infinity"
       inkscape:connector-curvature="0" />
    <path
       style="fill:none;stroke:#00979c;stroke-width:25"
       d="M 118,165 H 238"
       class="arduino"
       id="minus"
       inkscape:connector-curvature="0" />
    <path
       style="fill:none;stroke:#00979c;stroke-width:32"
       d="M 486,165 H 586 M 535,115 V 215"
       class="arduino"
       id="plus"
       inkscape:connector-curvature="0" />
    <path
       d="M 84,485 77.6,462 H 37 l -6.6,22.96319 H 8.6828744 L 43.12766,368.63416 h 30.617587 l 34.444783,116.32903 z m -26.43437,-94.96792 -15.308793,54.1148 h 30.439577 z"
       class="arduino text"
       id="A"
       inkscape:connector-curvature="0"
       style="fill:#00979c;stroke:#00979c;stroke-width:1" />
    <path
       d="m 180,485 c -6.16,-13.64 -11.68,-27.59 -18.29,-41.01 -3.83,-5.76 -11.35,-8.02 -17.98,-7.09 -1.05,3.95 -0.25,8.16 -0.48,12.23 0,11.96 0,23.91 0,35.87 -7.3,0 -14.6,0 -21.9,0 0,-38.78 0,-77.55 0,-116.33 16.45,0.38 33.02,-0.97 49.38,1.19 10.7,1.73 21.86,7.97 25.01,19.01 3.95,11.8 1.99,27.03 -8.6,34.79 -4.16,3.15 -9.14,5.16 -14.28,5.94 6.54,2.6 10.52,8.65 13.33,14.78 6.18,11.9 11.47,24.3 17.49,36.24 2.9,2.89 1.15,5.26 -2.34,4.38 -7.11,0 -14.23,0 -21.34,0 z m -5.42,-82.07 c 0.81,-7.4 -5.22,-14.46 -12.58,-15.15 -6.16,-1.34 -12.5,-0.73 -18.75,-0.87 0,10.95 0,21.9 0,32.85 9.21,-0.1 19.95,1.01 27.15,-5.96 2.82,-2.84 4.26,-6.9 4.18,-10.87 z"
       class="arduino text"
       id="R"
       inkscape:connector-curvature="0"
       style="fill:#00979c;stroke:#00979c;stroke-width:1" />
    <path
       d="m 307,425 c 0,16.34 -3.65,34.15 -16.06,45.74 -11.93,11.24 -29.05,14.33 -44.91,13.9 -8.96,0 -17.92,0 -26.88,0 0,-38.78 0,-77.55 0,-116.33 13.64,0.1 27.28,-0.22 40.92,0.21 13.54,0.73 27.94,5.34 36.34,16.62 8.57,11.29 10.54,26.07 10.59,39.86 z m -23.5,1.43 c -0.19,-11.38 -0.97,-24.42 -9.68,-32.82 -7.29,-6.93 -17.82,-7.17 -27.29,-6.97 -1.83,0 -3.65,0 -5.48,0 0,26.55 0,53.11 0,79.66 10,0 20.87,0.79 29.42,-5.4 10.97,-7.59 12.99,-22.14 13.03,-34.47 z"
       class="arduino text"
       id="D"
       inkscape:connector-curvature="0"
       style="fill:#00979c;stroke:#00979c;stroke-width:1" />
    <path
       d="m 407,442 c 0.32,14.07 -4.38,29.63 -16.62,37.76 -14.07,8.91 -32.18,8.82 -47.57,3.64 -11.57,-4.55 -19.3,-16.37 -19.86,-28.66 -1.53,-13.95 -0.27,-28 -0.68,-42 0,-14.75 0,-29.5 0,-44.25 7.3,0 14.59,0 21.89,0 0.2,27.67 -0.43,55.35 0.39,83 0.75,7.75 6.1,15.87 14.37,16.72 8.38,1.89 19.29,0.1 23.24,-8.51 4.66,-10.13 2.5,-21.52 2.98,-32.29 0,-19.64 0,-39.28 0,-58.92 7.3,0 14.6,0 21.9,0 0,24.49 0.2,49.09 0,73.51 z"
       class="arduino text"
       id="U"
       inkscape:connector-curvature="0"
       style="fill:#00979c;stroke:#00979c;stroke-width:1" />
    <path
       d="m 428,386 v -17.88993 h 73.51781 V 386 h -25.63332 v 80.37116 h 25.63332 V 484.4391 H 428 v -18.06794 h 25.63333 V 386 Z"
       class="arduino text"
       id="I"
       inkscape:connector-curvature="0"
       style="fill:#00979c;stroke:#00979c;stroke-width:1" />
    <path
       d="m 583,485 c -12.51,-28.13 -25.44,-56.08 -37.56,-84.38 0,28.13 0,56.25 0,84.38 -6.65,0 -13.29,0 -19.94,0 0,-38.78 0,-77.55 0,-116.33 8.96,0 17.92,0 26.88,0 11.83,26.48 24.41,52.64 35.67,79.36 0.66,2.94 2.27,4.52 1.72,0.61 0,-26.66 0,-53.31 0,-79.97 6.64,0 13.29,0 19.93,0 0,38.78 0,77.55 0,116.33 -8.9,0 -17.8,0 -26.7,0 z"
       class="arduino text"
       id="N"
       inkscape:connector-curvature="0"
       style="fill:#00979c;stroke:#00979c;stroke-width:1" />
    <path
       d="m 716,426 c 0.1,17.33 -3.54,36.21 -16.34,48.83 -13,12.7 -33.67,14.75 -50.21,8.52 -13.94,-5.33 -22.03,-19.45 -24.87,-33.46 -3.05,-15.52 -3.18,-31.81 0.62,-47.2 3.61,-14.3 12.89,-28.04 27.23,-33.19 13.4,-4.85 29.21,-4.31 41.72,2.81 13.59,8.11 19.33,24.2 21.03,39.17 0.58,4.81 0.82,9.67 0.82,14.52 z m -23.14,1.07 c -0.25,-11.45 -0.6,-23.99 -7.42,-33.72 -6.14,-8.04 -18.48,-9.19 -27.03,-4.6 -9.49,5.83 -11.73,17.93 -12.57,28.18 -0.63,13.14 -0.81,27.06 4.89,39.23 3.41,7.57 11.95,11.53 20,10.74 8.31,0 15.54,-6.02 18.24,-13.68 3.27,-8.28 3.81,-17.35 3.89,-26.15 z"
       class="arduino text"
       id="O"
       inkscape:connector-curvature="0"
       style="fill:#00979c;stroke:#00979c;stroke-width:1" />
    <path
       d="m 676.41,13.375 c 0,0.781 0,1.563 0,2.344 1.72,0 3.43,0 5.15,0 0,4.521 0,9.041 0,13.562 0.89,0 1.77,0 2.66,0 0,-4.521 0,-9.041 0,-13.562 1.73,0 3.46,0 5.19,0 0,-0.781 0,-1.563 0,-2.344 -4.33,0 -8.67,0 -13,0 z m 14.78,0 c 0,5.302 0,10.604 0,15.906 0.81,0 1.62,0 2.43,0 0,-4.521 0,-9.041 0,-13.562 1.43,4.521 2.86,9.041 4.29,13.562 0.8,0 1.6,0 2.4,0 1.37,-4.447 2.73,-8.896 4.1,-13.343 0,4.448 0,8.895 0,13.343 0.8,0 1.6,0 2.4,0 0,-5.302 0,-10.604 0,-15.906 -1.27,0 -2.54,0 -3.81,0 -1.3,4.241 -2.61,8.478 -3.91,12.719 -1.33,-4.241 -2.67,-8.478 -4,-12.719 -1.3,0 -2.6,0 -3.9,0 z"
       class="arduino text"
       id="TM"
       inkscape:connector-curvature="0"
       style="fill:#00979c;stroke:#00979c;stroke-width:1" />
  </g>
</svg>
