<svg height="16" preserveAspectRatio="xMinYMin meet" width="16" xmlns="http://www.w3.org/2000/svg"><g stroke="#00979c" transform="matrix(.02109695 0 0 .0211327 -2.033092 3.857057)"><g fill="none"><path d="m283.20686-24.234617c-98.82178-7.832134-181.85869 108.386061-141.00214 198.518167 39.45261 97.63019 188.14527 124.24063 259.0107 45.93997 68.48488-66.75878 94.94117-169.167057 178.30186-221.9732005 85.27345-57.8754675 222.67983-3.2319317 238.83428 99.7286175 16.23761 98.592013-90.50234 194.629513-187.39785 165.402503-71.42678-16.0614-122.82162-76.68727-152.06388-140.41579-35.88491-60.987843-82.79935-125.9719056-155.98295-143.120276-13.00464-2.934077-26.37312-4.093436-39.70002-4.079991z" stroke-width="61.175659"/><path d="m224.99263 115.38483h124.74477" stroke-width="25.921888"/><path d="m607.54328 115.38483h103.95398m-53.01653-51.710905v103.421815" stroke-width="33.180019"/></g><g fill="#00979c" transform="matrix(1.0395398 0 0 1.0342181 102.32693 -55.261161)"><path d="m84 485-6.4-23h-40.6l-6.6 22.96319h-21.7171256l34.4447856-116.32903h30.617587l34.444783 116.32903zm-26.43437-94.96792-15.308793 54.1148h30.439577z"/><path d="m180 485c-6.16-13.64-11.68-27.59-18.29-41.01-3.83-5.76-11.35-8.02-17.98-7.09-1.05 3.95-.25 8.16-.48 12.23v35.87c-7.3 0-14.6 0-21.9 0 0-38.78 0-77.55 0-116.33 16.45.38 33.02-.97 49.38 1.19 10.7 1.73 21.86 7.97 25.01 19.01 3.95 11.8 1.99 27.03-8.6 34.79-4.16 3.15-9.14 5.16-14.28 5.94 6.54 2.6 10.52 8.65 13.33 14.78 6.18 11.9 11.47 24.3 17.49 36.24 2.9 2.89 1.15 5.26-2.34 4.38-7.11 0-14.23 0-21.34 0zm-5.42-82.07c.81-7.4-5.22-14.46-12.58-15.15-6.16-1.34-12.5-.73-18.75-.87v32.85c9.21-.1 19.95 1.01 27.15-5.96 2.82-2.84 4.26-6.9 4.18-10.87z"/><path d="m307 425c0 16.34-3.65 34.15-16.06 45.74-11.93 11.24-29.05 14.33-44.91 13.9-8.96 0-17.92 0-26.88 0 0-38.78 0-77.55 0-116.33 13.64.1 27.28-.22 40.92.21 13.54.73 27.94 5.34 36.34 16.62 8.57 11.29 10.54 26.07 10.59 39.86zm-23.5 1.43c-.19-11.38-.97-24.42-9.68-32.82-7.29-6.93-17.82-7.17-27.29-6.97-1.83 0-3.65 0-5.48 0v79.66c10 0 20.87.79 29.42-5.4 10.97-7.59 12.99-22.14 13.03-34.47z"/><path d="m407 442c.32 14.07-4.38 29.63-16.62 37.76-14.07 8.91-32.18 8.82-47.57 3.64-11.57-4.55-19.3-16.37-19.86-28.66-1.53-13.95-.27-28-.68-42 0-14.75 0-29.5 0-44.25h21.89c.2 27.67-.43 55.35.39 83 .75 7.75 6.1 15.87 14.37 16.72 8.38 1.89 19.29.1 23.24-8.51 4.66-10.13 2.5-21.52 2.98-32.29 0-19.64 0-39.28 0-58.92h21.9c0 24.49.2 49.09 0 73.51z"/><path d="m428 386v-17.88993h73.51781v17.88993h-25.63332v80.37116h25.63332v18.06794h-73.51781v-18.06794h25.63333v-80.37116z"/><path d="m583 485c-12.51-28.13-25.44-56.08-37.56-84.38v84.38c-6.65 0-13.29 0-19.94 0 0-38.78 0-77.55 0-116.33h26.88c11.83 26.48 24.41 52.64 35.67 79.36.66 2.94 2.27 4.52 1.72.61 0-26.66 0-53.31 0-79.97h19.93v116.33c-8.9 0-17.8 0-26.7 0z"/><path d="m716 426c.1 17.33-3.54 36.21-16.34 48.83-13 12.7-33.67 14.75-50.21 8.52-13.94-5.33-22.03-19.45-24.87-33.46-3.05-15.52-3.18-31.81.62-47.2 3.61-14.3 12.89-28.04 27.23-33.19 13.4-4.85 29.21-4.31 41.72 2.81 13.59 8.11 19.33 24.2 21.03 39.17.58 4.81.82 9.67.82 14.52zm-23.14 1.07c-.25-11.45-.6-23.99-7.42-33.72-6.14-8.04-18.48-9.19-27.03-4.6-9.49 5.83-11.73 17.93-12.57 28.18-.63 13.14-.81 27.06 4.89 39.23 3.41 7.57 11.95 11.53 20 10.74 8.31 0 15.54-6.02 18.24-13.68 3.27-8.28 3.81-17.35 3.89-26.15z"/><path d="m676.41 13.375v2.344h5.15v13.562h2.66c0-4.521 0-9.041 0-13.562h5.19c0-.781 0-1.563 0-2.344-4.33 0-8.67 0-13 0zm14.78 0v15.906h2.43c0-4.521 0-9.041 0-13.562 1.43 4.521 2.86 9.041 4.29 13.562h2.4c1.37-4.447 2.73-8.896 4.1-13.343v13.343h2.4c0-5.302 0-10.604 0-15.906-1.27 0-2.54 0-3.81 0-1.3 4.241-2.61 8.478-3.91 12.719-1.33-4.241-2.67-8.478-4-12.719-1.3 0-2.6 0-3.9 0z"/></g></g></svg>